<svg width="201" height="201" viewBox="0 0 201 201" fill="none" xmlns="http://www.w3.org/2000/svg">
<path d="M150.713 172.542C151.021 177.406 149.601 181.821 147.196 185.918C144.489 190.531 140.355 193.285 135.112 194.143C131.112 194.796 127.411 193.72 124.05 191.436C121.046 189.392 119.072 186.622 118.034 183.161C118.014 183.101 117.984 183.041 117.913 182.863C117.314 183.49 116.754 184.076 116.195 184.662C113.964 186.994 111.666 189.245 108.969 191.051C107.689 191.905 106.379 192.702 104.992 193.379C100.761 195.446 96.4532 195.586 92.1317 193.777C87.9676 192.032 84.2726 189.563 81.281 186.136C78.6111 183.078 76.9729 179.533 76.3465 175.52C76.2694 175.021 76.1388 174.528 76.0751 174.026C76.0316 173.684 75.9143 173.708 75.6765 173.858C74.4839 174.612 73.4253 175.543 72.3365 176.428C70.8257 177.654 69.3014 178.87 67.6264 179.868C65.459 181.161 63.1743 182.012 60.5881 181.57C58.4541 181.205 56.5446 180.304 54.9634 178.86C49.8212 174.16 47.369 168.358 47.9452 161.336C48.1529 158.793 48.8061 156.355 49.4058 153.896C49.4962 153.531 49.5364 153.159 49.5498 152.78C49.5632 152.422 49.4158 152.294 49.0574 152.301C47.6772 152.325 46.3238 152.522 44.9704 152.773C42.3205 153.266 39.7008 153.916 37.0208 154.234C33.6407 154.636 30.3778 154.221 27.3929 152.512C23.6644 150.382 21.5304 147.058 20.6092 142.924C19.9693 140.06 20.4886 137.373 21.976 134.864C22.4885 133.997 23.182 133.28 23.9089 132.593C24.3712 132.154 24.3746 132.158 23.8319 131.772C22.1736 130.596 20.6025 129.317 19.2591 127.782C15.5373 123.541 13.3363 118.617 12.6663 113.016C12.0834 108.138 12.472 103.354 14.1403 98.7111C15.2257 95.6861 16.9041 93.0496 19.4836 91.0597C21.8688 89.2206 24.5354 88.363 27.5571 88.7482C27.7112 88.7683 27.9289 88.8722 28.0194 88.7348C28.1366 88.5506 27.9055 88.4233 27.805 88.2926C25.929 85.8505 24.3712 83.2341 23.3796 80.3062C22.254 76.9897 21.9391 73.5727 22.1937 70.0954C22.5053 65.851 23.3595 61.7204 24.934 57.754C25.8687 55.4023 27.0345 53.1779 28.7832 51.3086C30.0528 49.9519 31.5603 48.9837 33.4162 48.6286C33.6876 48.5784 33.9656 48.5683 34.2738 48.5348C34.0527 47.5131 33.8283 46.4813 33.8752 45.4361C34.2068 37.7813 37.4061 31.8317 44.3205 28.1869C48.2534 26.1133 52.5112 25.1083 56.9399 24.9073C59.4792 24.7934 61.8879 25.3193 63.928 26.9809C64.2664 27.2556 64.5779 27.5638 64.9129 27.8653C65.8342 24.0262 68.2797 21.3362 71.355 19.1386C74.4236 16.9477 77.8741 15.5474 81.472 14.4988C85.7198 13.2593 90.0312 12.3414 94.4901 12.3984C97.696 12.4419 100.848 12.8339 103.83 14.1169C104.992 14.6161 106.084 15.2425 107.053 16.0599C108.707 17.4569 110.001 19.0682 110.011 21.3898C110.212 21.3663 110.309 21.2189 110.429 21.1184C112.754 19.1955 115.357 17.6981 118.098 16.5055C121.31 15.1085 124.694 14.2107 128.161 13.6379C130.811 13.199 133.467 12.8305 136.161 12.9612C138.687 13.0818 141.172 13.4402 143.474 14.5926C147.614 16.6696 150.033 21.038 149.598 25.6443C149.561 26.0496 149.517 26.455 149.477 26.867C149.648 26.9508 149.752 26.8134 149.869 26.7565C153.979 24.6393 158.361 23.7951 162.961 24.0028C165.889 24.1368 168.763 24.6192 171.416 25.919C175.647 27.9926 178.002 31.4431 178.428 36.1264C178.749 39.6573 177.711 42.9102 176.059 45.9922C174.753 48.4276 173.131 50.6353 171.198 52.6118C171.131 52.6821 171.068 52.7525 170.964 52.8664C171.446 52.9669 171.882 53.0506 172.317 53.1478C175.389 53.8412 178.066 55.3487 180.592 57.1644C182.444 58.4944 184.18 59.9483 185.567 61.7874C188.257 65.3451 189.111 69.3417 188.602 73.7268C187.995 78.9394 186.039 83.6194 183.225 87.9911C182.572 89.0062 181.905 90.0212 181.392 91.1167C181 91.9508 181.074 92.45 181.727 93.1133C182.639 94.0345 183.687 94.7916 184.726 95.5621C186.578 96.9356 188.267 98.4632 189.55 100.4C191.248 102.969 192.189 105.816 192.665 108.838C192.95 110.637 192.906 112.409 192.427 114.181C191.69 116.912 190.059 118.959 187.721 120.466C185.439 121.94 182.994 123.059 180.361 123.749C180.237 123.783 180.113 123.823 179.949 123.873C180.669 124.871 181.235 125.916 181.573 127.072C182.196 129.193 181.965 131.307 181.526 133.427C180.645 137.685 178.294 141.005 175.031 143.765C173.791 144.814 172.485 145.762 171.151 146.683C170.378 147.216 170.374 147.236 170.686 148.117C171.517 150.482 172.22 152.881 172.391 155.393C172.686 159.715 172.264 163.932 170.17 167.818C168.358 171.185 165.627 173.433 161.832 174.254C159.128 174.837 156.499 174.414 153.919 173.564C152.897 173.225 151.892 172.833 150.844 172.465C150.767 172.488 150.737 172.502 150.713 172.542Z" fill="#030302"/>
<path d="M38.9136 151.296C37.2956 151.601 35.711 151.802 34.0963 151.738C27.8553 151.487 24.177 147.259 23.182 142.358C22.5556 139.263 23.4165 136.606 25.7649 134.459C26.1635 134.094 26.5722 133.739 26.8838 133.293C27.527 132.375 27.4399 131.534 26.656 130.737C25.8252 129.89 24.7967 129.293 23.8855 128.553C19.6746 125.143 16.9879 120.764 15.7886 115.511C14.5256 109.981 14.7869 104.503 16.7902 99.16C17.6277 96.9256 18.9175 94.9725 20.7566 93.4047C22.8705 91.5991 25.2825 90.9458 28.0194 91.4148C28.7564 91.5421 29.5001 91.6694 30.2572 91.6895C30.9708 91.7096 31.6073 91.5455 31.9624 90.8654C32.3175 90.1854 32.0897 89.5723 31.6542 88.9995C30.7731 87.8404 29.882 86.6913 29.0278 85.5121C25.8218 81.1035 24.4584 76.1723 24.8068 70.7386C25.0815 66.4305 25.9223 62.2564 27.5806 58.2632C28.4147 56.2599 29.4365 54.3638 31.0076 52.8228C31.8418 52.0054 32.7831 51.3488 33.969 51.2115C34.7697 51.121 35.577 51.0942 36.2671 51.7274C36.8132 52.2265 37.6808 52.1227 38.1297 51.6168C38.6188 51.0641 38.6624 50.1428 38.0326 49.6772C36.706 48.6923 36.5385 47.2451 36.5519 45.8582C36.6189 39.1213 39.3659 33.8652 45.4093 30.5755C48.4075 28.944 51.6738 28.1467 55.0305 27.6777C56.4944 27.4734 57.9517 27.4265 59.4223 27.6978C61.7204 28.1199 63.1877 29.614 64.4038 31.4465C65.0503 32.418 65.5294 33.4732 65.9548 34.5586C66.1893 35.1583 66.7186 35.4296 67.3786 35.3526C67.9414 35.2856 68.3768 34.8501 68.474 34.2571C68.5309 33.9188 68.407 33.6106 68.2831 33.3091C67.814 32.1835 67.5025 31.0177 67.4455 29.7983C67.3517 27.8251 68.1524 26.1702 69.3249 24.6627C71.5225 21.8454 74.4269 19.9359 77.6262 18.482C81.7635 16.6026 86.1251 15.4804 90.6342 14.9477C94.1718 14.529 97.686 14.6596 101.136 15.611C103.287 16.204 105.193 17.2324 106.677 18.9577C107.569 19.9928 108.054 21.1653 108.068 22.5321C108.074 23.0882 108.068 23.6443 108.098 24.2004C108.111 24.4182 107.924 24.7331 108.249 24.8403C108.587 24.9475 108.929 25.115 109.3 24.8101C110.326 23.9693 111.421 23.2222 112.557 22.5388C115.984 20.4886 119.464 18.5456 123.334 17.4267C127.086 16.3447 130.915 15.6613 134.817 15.5574C137.41 15.4871 139.983 15.7852 142.362 16.9611C145.521 18.5222 147.417 22.1301 146.965 25.6275C146.847 26.5421 146.673 27.4332 146.351 28.2941C146.11 28.9407 145.826 29.5571 145.3 30.0395C145.109 30.2137 144.954 30.4348 144.817 30.6559C144.429 31.2756 144.489 31.9523 144.958 32.4113C145.437 32.8769 146.164 32.9238 146.757 32.5051C146.941 32.3744 147.149 32.2337 147.263 32.0461C148.01 30.81 149.229 30.15 150.415 29.47C154.1 27.3561 158.107 26.5119 162.328 26.6057C164.931 26.6627 167.483 27.0513 169.882 28.0965C173.362 29.6174 175.352 32.3175 175.775 36.0929C176.123 39.1984 175.198 42.0392 173.744 44.7359C172.113 47.7643 170.006 50.4075 167.339 52.5917C167.252 52.6654 167.165 52.7391 167.081 52.8161C166.582 53.2885 166.428 53.8781 166.683 54.4643C166.934 55.0372 167.406 55.2784 168.019 55.2784C170.069 55.2683 172.049 55.6402 173.955 56.3906C176.589 57.4291 178.867 59.0371 181.031 60.8226C182.562 62.0856 183.781 63.6031 184.722 65.3585C185.958 67.6633 186.24 70.1256 186.042 72.685C185.654 77.72 183.808 82.2224 181.101 86.4233C180.384 87.5355 179.707 88.6745 179.088 89.847C177.902 92.0949 178.716 93.9541 180.173 95.2807C181.238 96.2489 182.384 97.1232 183.55 97.9641C187.345 100.704 189.308 104.5 190.022 109.039C190.26 110.56 190.283 112.054 189.875 113.555C189.231 115.923 187.66 117.501 185.62 118.707C183.449 119.99 181.145 120.932 178.689 121.505C178.277 121.602 177.862 121.699 177.476 121.886C176.585 122.319 176.314 123.216 176.836 124.061C177.068 124.436 177.329 124.794 177.61 125.136C179.202 127.086 179.533 129.307 179.175 131.739C178.555 135.966 176.394 139.243 173.161 141.916C172.09 142.804 170.981 143.638 169.828 144.415C169.366 144.727 168.93 145.068 168.552 145.484C167.895 146.204 167.671 147.032 167.909 147.98C168.287 149.487 168.897 150.924 169.245 152.442C170.224 156.69 170.083 160.894 168.589 164.991C167.507 167.956 165.577 170.23 162.539 171.366C160.294 172.203 158.013 172.043 155.742 171.42C154.525 171.085 153.356 170.622 152.177 170.183C151.363 169.882 150.532 169.624 149.648 169.681C148.465 169.755 147.802 170.545 147.953 171.724C148.619 177.011 146.991 181.697 144.02 185.938C141.866 189.014 138.747 190.846 135.082 191.526C131.843 192.129 128.794 191.359 125.99 189.6C123.136 187.808 121.304 185.292 120.446 182.046C120.309 181.526 120.188 180.997 119.937 180.515C119.454 179.58 118.453 179.302 117.575 179.888C116.908 180.334 116.302 180.86 115.729 181.423C113.97 183.134 112.342 184.977 110.483 186.582C108.396 188.384 106.141 189.942 103.642 191.134C100.249 192.749 96.7882 192.896 93.3276 191.469C89.3143 189.814 85.7734 187.446 82.9594 184.086C80.7249 181.423 79.4285 178.344 78.9092 174.917C78.782 174.079 78.6547 173.235 78.3867 172.425C77.8976 170.94 76.7619 170.428 75.3415 171.088C73.9479 171.731 72.7653 172.696 71.5895 173.661C69.7671 175.155 67.9615 176.666 65.9179 177.858C64.9197 178.438 63.8644 178.873 62.7154 179.037C60.9365 179.292 59.3553 178.706 57.8846 177.788C55.754 176.455 54.2264 174.565 52.9802 172.408C51.322 169.537 50.3974 166.482 50.4744 163.158C50.5348 160.495 51.0574 157.902 51.7709 155.343C51.9987 154.525 52.1964 153.695 52.1896 152.837C52.1796 150.911 51.0339 149.725 49.111 149.712C47.3556 149.701 45.627 149.993 43.9118 150.331C42.2569 150.636 40.6054 150.961 38.9136 151.296Z" fill="#D76700"/>
<path d="M95.2907 163.011C94.0713 164.009 92.8553 164.944 91.4181 165.544C88.4433 166.783 86.0246 165.929 84.4635 163.098C83.425 161.212 82.889 159.159 82.4568 157.071C81.9476 154.623 81.5858 152.147 81.3212 149.658C81.2743 149.209 81.0733 149.075 80.6813 148.961C75.663 147.484 70.8089 145.601 66.2596 142.988C62.598 140.884 59.238 138.375 56.3302 135.293C52.9835 131.745 50.4442 127.669 48.5213 123.2C46.5549 118.637 45.2316 113.897 44.5884 108.972C44.0491 104.832 44.0692 100.694 44.6253 96.5537C45.168 92.5471 46.0993 88.6444 47.781 84.956C49.9417 80.2225 53.1142 76.2494 57.0169 72.8357C57.7506 72.1925 58.5043 71.5728 59.3217 70.8827C58.0119 70.5577 56.9566 69.9313 55.9885 69.1407C54.5111 67.9313 53.4994 66.454 53.3755 64.4942C53.2415 62.3603 53.9115 60.501 55.5429 59.1041C57.4625 57.4559 59.7572 56.7624 62.2731 56.9199C65.5326 57.1242 67.9212 59.9617 67.623 63.2145C67.5694 63.8175 67.479 64.4138 67.4153 65.0168C67.4019 65.1575 67.3148 65.3418 67.4488 65.4322C67.5862 65.526 67.7202 65.3719 67.8441 65.3016C69.5694 64.3334 71.3281 63.4256 73.1137 62.5747C79.147 59.7004 85.3914 57.4659 91.9909 56.2901C94.9289 55.7675 97.8836 55.466 100.868 55.476C102.178 55.4794 103.475 55.6301 104.775 55.8077C105.806 55.9517 106.858 55.9551 107.903 56.0355C112.366 56.3772 116.69 57.3286 120.875 58.9232C121.806 59.2783 121.809 59.2783 121.803 58.28C121.789 55.9718 123.025 54.337 124.724 52.987C125.869 52.0758 127.193 51.5766 128.66 51.992C130.489 52.5079 131.621 53.8211 132.382 55.5062C133.41 57.7942 133.139 60.0287 132.131 62.2363C131.926 62.6819 131.719 63.1308 131.464 63.5462C131.27 63.8644 131.34 64.0118 131.642 64.1961C133.514 65.3384 135.337 66.5545 137.062 67.9079C142.941 72.5242 148.02 77.8708 151.805 84.353C155.232 90.2189 157.025 96.5537 157.055 103.371C157.081 109.793 156.003 115.994 153.443 121.91C150.576 128.533 146.298 134.054 140.573 138.452C138.298 140.201 135.903 141.762 133.374 143.109C133.045 143.283 132.988 143.447 133.099 143.792C133.662 145.551 134.385 147.263 134.697 149.092C135.015 150.964 135.266 152.844 134.955 154.747C134.921 154.941 134.884 155.132 134.831 155.323C134.429 156.743 133.41 157.293 132.054 156.713C130.734 156.147 129.477 155.433 128.168 154.844C125.679 153.725 123.169 152.653 120.67 151.557C119.471 151.031 118.305 150.442 117.166 149.799C116.848 149.621 116.55 149.574 116.188 149.668C113.126 150.442 110.034 151.041 106.898 151.42C106.62 151.454 106.463 151.611 106.302 151.799C103.404 155.175 100.433 158.482 97.1097 161.453C96.5201 161.979 95.9138 162.478 95.2907 163.011Z" fill="#040201"/>
<path d="M85.5556 59.9315C88.7683 59.0069 91.9608 58.1661 95.2304 57.6468C95.4582 57.61 95.6492 57.6167 95.8803 57.7272C96.3225 57.9383 96.8183 57.9885 97.3141 58.0053C98.1851 58.0321 99.0427 57.8947 99.907 57.8311C102.245 57.6535 104.567 57.7942 106.898 58.0656C114.409 58.9332 121.448 61.2682 128.03 64.923C136.703 69.7437 143.869 76.2393 149.149 84.6914C153.772 92.0882 155.346 100.175 154.331 108.811C153.718 114.011 152.321 118.959 149.899 123.618C146.368 130.419 141.146 135.578 134.66 139.534C134.003 139.933 133.323 140.295 132.67 140.7C132.335 140.908 132.181 140.888 132.084 140.466C131.715 138.904 131.323 137.353 130.931 135.799C130.66 134.72 130.362 133.648 129.943 132.616C128.265 128.459 123.514 127.32 120.104 130.255C118.342 131.769 116.942 133.605 115.545 135.441C113.833 137.692 112.155 139.97 110.483 142.248C110.232 142.589 110.051 142.643 109.666 142.445C105.515 140.295 101.327 138.218 97.0796 136.268C93.81 134.767 90.3796 133.766 86.7985 133.333C85.3211 133.156 83.894 133.303 82.7785 134.415C81.7567 135.434 81.3045 136.747 81.07 138.144C80.6345 140.73 80.6948 143.323 80.9393 145.919C80.9929 146.502 80.9929 146.509 80.4301 146.331C74.6715 144.542 69.1674 142.214 64.1659 138.787C57.7707 134.405 53.2951 128.526 50.4208 121.381C47.6872 114.583 46.2635 107.548 46.7459 100.202C47.1144 94.5873 48.2969 89.167 50.9267 84.1319C53.208 79.7702 56.414 76.1757 60.1928 73.0769C65.2379 68.9363 70.8759 65.784 76.8523 63.2112C79.6864 61.9817 82.5507 60.8293 85.5556 59.9315Z" fill="#FFC63E"/>
<path d="M93.3612 161.182C92.517 161.862 91.6862 162.498 90.7381 162.957C90.4601 163.091 90.172 163.215 89.8772 163.313C88.6343 163.725 87.7298 163.386 87.023 162.277C86.0481 160.746 85.5758 159.028 85.1872 157.286C84.4569 154.01 84.0482 150.686 83.7065 147.35C83.482 145.152 83.2944 142.951 83.4284 140.744C83.5021 139.554 83.5658 138.355 84.0381 137.236C84.5172 136.104 84.9259 135.846 86.152 135.92C88.507 136.06 90.7415 136.74 92.9692 137.454C95.3444 138.214 97.5654 139.333 99.7865 140.445C102.55 141.826 105.361 143.112 108.091 144.559C108.49 144.77 108.47 144.904 108.225 145.223C104.661 149.812 100.889 154.217 96.6911 158.247C95.6325 159.256 94.5337 160.234 93.3612 161.182Z" fill="#D82D0D"/>
<path d="M126.091 151.072C123.31 149.835 120.51 148.73 117.887 147.246C116.677 146.563 115.431 145.953 114.295 145.142C113.786 144.78 113.22 144.519 112.65 144.274C112.46 144.191 112.336 144.134 112.513 143.903C115.14 140.402 117.615 136.784 120.533 133.508C120.979 133.008 121.468 132.546 121.984 132.121C123.92 130.523 126.523 131.159 127.471 133.477C128.037 134.858 128.389 136.305 128.714 137.755C129.447 141.062 130.476 144.285 131.575 147.484C132.174 149.236 132.372 151.048 132.472 152.881C132.493 153.236 132.462 153.591 132.362 153.969C130.292 152.964 128.245 151.939 126.091 151.072Z" fill="#D82D0D"/>
<path d="M61.6366 69.1943C61.3351 69.4857 61.0939 69.5125 60.7958 69.2077C60.6249 69.0301 60.3469 68.9497 60.109 68.8425C58.9332 68.3132 57.8846 67.5963 56.9701 66.6952C55.5597 65.3116 55.3889 62.9633 56.682 61.4658C58.2531 59.6468 60.3067 58.9299 62.6718 59.3352C64.4205 59.6334 65.603 61.2079 65.6466 63.0906C65.67 64.1659 65.603 65.2446 65.794 66.3099C65.8409 66.5712 65.6231 66.598 65.4858 66.6818C64.186 67.4757 62.9063 68.2965 61.6366 69.1943Z" fill="#FCC43D"/>
<path d="M129.223 62.5077C129.052 62.7455 128.915 62.5914 128.781 62.5211C127.427 61.7975 126.05 61.1174 124.65 60.4876C124.409 60.3804 124.245 60.223 124.151 59.9818C123.712 58.8562 123.672 57.7473 124.335 56.6921C124.992 55.6435 125.833 54.8094 127.059 54.4275C127.712 54.2265 128.265 54.3303 128.804 54.7424C130.251 55.8546 130.898 57.9818 130.359 59.9248C130.111 60.8293 129.699 61.6635 129.223 62.5077Z" fill="#FBC33D"/>
<path d="M111.28 147.149C111.82 147.387 112.325 147.604 112.955 147.879C111.558 148.207 110.272 148.442 108.855 148.673C109.401 147.973 109.883 147.363 110.356 146.747C110.473 146.593 110.567 146.663 110.681 146.747C110.868 146.881 111.059 147.001 111.28 147.149Z" fill="#F1BB3B"/>
<path d="M92.8352 96.3661C93.5086 95.7229 94.1451 95.0931 95.0228 94.7749C96.748 94.1518 98.5068 94.1451 100.205 94.7313C102.728 95.6057 103.24 98.6743 101.267 100.668C100.644 101.294 99.9004 101.713 99.0662 101.994C97.1601 102.637 95.2338 102.574 93.3277 102.064C92.1518 101.75 91.2775 101.016 91.1234 99.7161C91.0095 98.7681 91.4584 97.9674 92.0044 97.2371C92.2322 96.9256 92.5371 96.671 92.8352 96.3661Z" fill="#020201"/>
<path d="M77.6228 92.4064C77.7065 93.7833 77.271 94.9256 76.2928 95.8301C75.5759 96.4934 74.6714 96.614 73.8942 96.2154C73.1137 95.8134 72.772 95.1534 72.8993 94.1216C73.0467 92.9424 73.442 91.8637 74.4805 91.1535C75.797 90.2524 77.2375 90.8152 77.6228 92.4064Z" fill="#040301"/>
<path d="M120.828 92.5638C119.642 93.6124 118.312 93.5822 117.448 92.5169C117.367 92.4164 117.294 92.3059 117.237 92.1886C116.409 90.5371 117.803 88.038 119.632 87.8805C120.754 87.7867 121.769 88.6644 121.813 89.7934C121.85 90.8285 121.571 91.7632 120.828 92.5638Z" fill="#040301"/>
</svg>
