<svg width="88" height="88" viewBox="0 0 88 88" fill="none" xmlns="http://www.w3.org/2000/svg">
<g id="lion_back">
<g id="Group">
<path id="Vector" d="M33.9471 80.0021C32.4269 78.8262 30.7835 77.8604 29.1786 76.8396C26.2691 74.9872 23.3244 73.1953 20.2774 71.5739C19.1972 70.9997 18.1071 70.4453 17.0225 69.8799C15.0854 68.8701 13.2044 67.7668 11.4004 66.5315C10.5017 65.9166 9.53042 65.4205 8.61302 64.8364C8.05092 64.4789 7.50972 64.0928 7.07082 63.5791C6.88272 63.3591 6.79472 63.1193 6.81892 62.83C6.83872 62.5869 6.77162 62.3471 6.79032 62.1029C6.80462 61.9214 6.83872 61.7465 6.92782 61.5892C7.23802 61.0414 7.56582 60.509 7.95962 60.0118C8.25112 59.6444 8.50522 59.244 8.79672 58.8722C9.66682 57.7645 10.5479 56.6645 11.3861 55.5315C12.2441 54.3721 13.2121 53.3084 14.1328 52.204C14.6465 51.5869 15.2196 51.0248 15.7432 50.4187C16.3438 49.7246 16.8234 48.9392 17.3767 48.2099C18.0862 47.2749 18.8177 46.3564 19.5206 45.417C20.2191 44.4842 20.8417 43.4953 21.4995 42.5317C21.637 42.3304 21.7734 42.128 21.9274 41.9399C23.078 40.5429 23.914 38.9303 25.003 37.4915C26.6244 35.3498 27.9939 33.0398 29.4756 30.8046C29.5658 30.6682 29.6714 30.5406 29.7737 30.4119C30.085 30.0203 30.448 29.8322 30.9859 29.9235C31.4952 30.0093 31.8164 30.2689 31.9363 30.7265C32.2047 31.7572 32.4368 32.7967 32.4962 33.8692C32.5446 34.7481 32.7019 35.616 32.835 36.4861C33.0176 37.6807 33.1892 38.8786 33.3817 40.0721C33.5863 41.336 33.77 42.6032 33.9064 43.877C33.9746 44.5172 34.012 45.1596 34.0648 45.802C34.0714 45.8878 34.0857 45.9725 34.1011 46.0572C34.1693 46.4477 34.1704 46.4444 34.5686 46.4928C35.2451 46.5753 35.9216 46.5907 36.6036 46.5434C37.1888 46.5027 37.7773 46.5071 38.3647 46.5082C39.0885 46.5093 39.8101 46.4697 40.5317 46.4202C40.9178 46.3938 41.305 46.363 41.69 46.3718C42.8571 46.3971 44.0011 46.2024 45.1495 46.0484C45.76 45.967 46.3727 45.9076 46.9876 45.8801C47.7785 45.8449 48.5419 45.6436 49.313 45.4929C51.0895 45.1453 52.8594 44.7691 54.6183 44.3423C55.7183 44.0761 56.8051 43.7615 57.871 43.3798C58.3748 43.1994 58.861 42.9629 59.3395 42.7209C59.6629 42.5581 59.8499 42.2435 60.0083 41.9311C60.5341 40.8927 60.7904 39.7696 60.9972 38.6344C61.1314 37.8963 61.2942 37.1615 61.3404 36.4091C61.3437 36.3596 61.3525 36.3101 61.3547 36.2595C61.446 32.7802 61.4295 29.3009 61.3833 25.8227C61.3679 24.6501 61.2458 23.4808 61.1457 22.3115C61.0808 21.5558 61.0489 20.7979 61.0522 20.0378C61.0588 18.6397 60.9158 17.2515 60.7695 15.8633C60.6287 14.5246 60.3746 13.2002 60.2569 11.8615C60.1843 11.031 60.17 10.1895 60.2866 9.35573C60.335 9.00703 60.5341 8.78703 60.8641 8.67813C61.1248 8.59233 61.3965 8.57693 61.6682 8.55823C64.6789 8.35253 67.694 8.40423 70.708 8.38553C71.4824 8.38113 72.2502 8.43063 73.0213 8.49553C73.9651 8.57473 74.9067 8.39983 75.8505 8.38883C76.8372 8.37673 77.8195 8.51643 78.8073 8.48673C79.1494 8.47683 79.4277 8.74303 79.4728 9.07743C79.5245 9.45803 79.5751 9.83313 79.5025 10.2269C79.4497 10.514 79.5234 10.8242 79.5454 11.1234C79.6389 12.3939 79.6081 13.671 79.7665 14.9393C79.8204 15.3727 79.8457 15.8083 79.9634 16.2318C80.1845 17.0238 80.1834 17.8455 80.2714 18.6551C80.3539 19.4097 80.4419 20.1632 80.5321 20.9156C80.5871 21.371 80.5596 21.8308 80.6091 22.2873C80.7818 23.8592 80.8423 25.4399 80.9633 27.0162C81.0623 28.3164 81.0007 29.621 81.0117 30.9245C81.0205 31.9838 81.0205 33.0442 81.0161 34.1035C81.0106 35.1914 80.9259 36.2771 80.872 37.3628C80.8082 38.6432 80.6542 39.9159 80.5365 41.1908C80.4078 42.5944 80.1746 43.987 79.9194 45.373C79.728 46.4136 79.4354 47.4333 79.2099 48.4662C79.0196 49.3341 78.8128 50.1965 78.5081 51.0314C78.2463 51.7497 77.9691 52.4625 77.6215 53.1478C77.3949 53.5933 77.209 54.0597 76.9769 54.5041C76.1365 56.1145 75.0134 57.4994 73.678 58.727C72.0709 60.2054 70.4572 61.6761 68.6433 62.9037C68.2143 63.1941 67.7468 63.413 67.2749 63.6176C66.7359 63.8508 66.2156 64.1049 65.7272 64.4393C65.0298 64.9178 64.2235 65.1224 63.3963 65.25C62.8375 65.3369 62.2842 65.4557 61.7232 65.525C60.4527 65.6823 59.1756 65.7978 57.9073 65.9683C56.2034 66.1971 54.4907 66.3159 52.7769 66.4446C51.8397 66.515 50.9047 66.5436 49.9675 66.5458C49.0061 66.5469 48.0535 66.6624 47.0954 66.7207C45.7589 66.8032 44.4202 66.8307 43.0815 66.8263C41.756 66.8219 40.436 66.9385 39.1138 67.0122C38.6485 67.0386 38.1832 67.0166 37.7179 66.9957C37.5738 66.9891 37.5265 66.999 37.5419 67.1761C37.6596 68.5214 37.8972 69.8535 37.939 71.2109C37.9874 72.7905 38.1381 74.3679 38.2547 75.9453C38.3174 76.7945 38.3933 77.6426 38.4824 78.4896C38.5484 79.1155 38.6782 79.7326 38.7706 80.3541C38.8542 80.9184 38.8641 81.4915 38.7574 82.0569C38.6694 82.5211 38.2118 82.8049 37.7311 82.7004C37.5067 82.652 37.2878 82.5816 37.0821 82.4793C36.2692 82.0756 35.5168 81.5916 34.9217 80.8887C34.6434 80.5554 34.3299 80.2507 33.9471 80.0021Z" fill="black"/>
<path id="Vector_2" d="M76.4698 21.5457C76.6051 23.4025 76.5974 25.2428 76.6216 27.0831C76.6491 29.1302 76.7481 31.1762 76.8493 33.2211C76.9923 36.1031 77.1089 38.9884 77.0275 41.8737C76.9604 44.2772 76.5787 46.6279 75.6767 48.8785C74.9595 50.6649 73.9607 52.2687 72.7133 53.7284C71.3735 55.2959 69.8896 56.7094 68.2583 57.97C66.9471 58.9831 65.538 59.8301 63.9848 60.4076C62.8771 60.819 61.7265 61.0929 60.5737 61.3569C58.5695 61.8156 56.5455 62.1511 54.5039 62.3986C53.1927 62.557 51.8771 62.5933 50.5604 62.6065C48.3549 62.6274 46.1494 62.6087 43.9461 62.7352C42.3456 62.8276 40.7451 62.9354 39.1435 63.0058C37.2768 63.0883 35.409 63.1367 33.5423 63.2005C33.2057 63.2126 33.2079 63.2236 33.1925 63.5613C33.1265 64.9759 33.3586 66.3542 33.6556 67.7292C33.8536 68.6444 33.9438 69.5805 34.1407 70.4979C34.4619 71.9917 34.6027 73.5086 34.7061 75.031C34.7567 75.7801 34.848 76.5259 34.9217 77.2893C34.8095 77.2651 34.7512 77.1815 34.6852 77.1155C33.0341 75.4589 31.2356 73.975 29.3513 72.5945C28.1149 71.6881 26.7905 70.9192 25.4837 70.1195C22.4796 68.2814 19.4084 66.5566 16.4054 64.7174C15.301 64.0409 14.2351 63.3017 13.0889 62.6923C12.4256 62.3392 11.7546 61.9993 11.0506 61.7331C10.8691 61.6649 10.868 61.6022 10.9747 61.4526C11.7898 60.3097 12.6852 59.2295 13.5443 58.1207C14.784 56.5191 15.9896 54.8911 17.2029 53.2686C18.8232 51.1016 20.5414 49.0105 22.1771 46.8545C24.1461 44.2596 26.1162 41.6658 27.7629 38.8465C28.2546 38.005 28.6891 37.1349 29.0939 36.2483C29.1225 36.1856 29.1346 36.0822 29.2138 36.0888C29.3062 36.0965 29.282 36.201 29.2853 36.267C29.3876 38.1535 29.7759 39.9971 30.1378 41.844C30.3941 43.1519 30.536 44.4763 30.6768 45.7996C30.8088 47.0371 30.9397 48.2746 31.0739 49.5121C31.0937 49.6892 31.1377 49.8641 31.1575 50.0412C31.174 50.1974 31.2576 50.2524 31.4028 50.2359C34.2221 49.9257 37.0524 50.149 39.8761 50.0731C41.6757 50.0247 43.461 49.8773 45.2452 49.6419C47.7741 49.3086 50.2788 48.8444 52.7747 48.3307C54.8174 47.9105 56.8381 47.4012 58.7818 46.6334C61.0071 45.7534 62.6494 44.242 63.6768 42.0585C64.6536 39.9828 65.2366 37.8114 65.4841 35.5333C65.7173 33.3872 65.637 31.2433 65.5358 29.0983C65.4357 26.972 65.1134 24.8677 64.8637 22.7568C64.6008 20.5315 64.3885 18.3018 64.218 16.0666C64.0981 14.4969 63.9617 12.9272 63.5041 11.407C63.4601 11.2618 63.5239 11.2332 63.6537 11.2409C64.7262 11.2992 65.7965 11.3784 66.8602 11.528C68.4057 11.7458 69.96 11.88 71.5165 12.001C73.051 12.1209 74.5877 12.2067 76.1189 12.3673C76.219 12.3783 76.2608 12.4091 76.2564 12.5092C76.2509 12.6379 76.2542 12.7666 76.252 12.8953C76.2146 15.2075 76.1838 17.5208 76.3576 19.8297C76.4005 20.3973 76.4324 20.9616 76.4698 21.5457Z" fill="#FFC63E"/>
</g>
</g>
</svg>
