<svg width="118" height="64" viewBox="0 0 118 64" fill="none" xmlns="http://www.w3.org/2000/svg">
<rect x="2" y="2" width="114" height="60" rx="8" fill="#FFC63E" stroke="black" stroke-width="4"/>
<path d="M52.0327 32.84V17.72H55.8727V32.84H52.0327ZM36.8527 45.74V34.37H55.8727V45.74H36.8527ZM40.6627 42.32H52.0327V37.76H40.6627V42.32ZM44.1727 27.77V24.38H53.7427V27.77H44.1727ZM32.6227 29.81C36.0827 28.89 38.7327 27.71 40.5727 26.27C42.4327 24.83 43.3627 23.32 43.3627 21.74V21.02L44.6527 22.55H33.4327V19.07H47.2627V20.75C47.2627 23.85 46.1327 26.42 43.8727 28.46C41.6327 30.48 38.3627 32.08 34.0627 33.26L32.6227 29.81ZM81.2 33.44V17.75H84.8V33.44H81.2ZM74.93 33.44V18.02H78.44V33.44H74.93ZM77 26.9V23.51H82.46V26.9H77ZM80.99 46.04V38.42H65.27V34.97H84.8V46.04H80.99ZM59.78 30.56C61.68 29.14 63.06 27.58 63.92 25.88C64.78 24.16 65.21 22.35 65.21 20.45V18.56H68.87V20.45C68.87 23.13 68.31 25.52 67.19 27.62C66.07 29.72 64.35 31.64 62.03 33.38L59.78 30.56ZM71.9 32.78L65.24 26.9L67.58 24.26L74.15 30.08L71.9 32.78Z" fill="black"/>
</svg>
