<svg width="581" height="39" viewBox="0 0 581 39" fill="none" xmlns="http://www.w3.org/2000/svg">
<path d="M26.64 38.32V0.959999H31.76V38.32H26.64ZM10.8 33.56C7.76 33.56 5.29333 32.5333 3.4 30.48C1.53333 28.4267 0.6 25.24 0.6 20.92V15.2C0.6 10.88 1.53333 7.69333 3.4 5.64C5.29333 3.58666 7.76 2.56 10.8 2.56C13.8133 2.56 16.2533 3.58666 18.12 5.64C20.0133 7.69333 20.96 10.88 20.96 15.2V20.92C20.96 25.24 20.0133 28.4267 18.12 30.48C16.2533 32.5333 13.8133 33.56 10.8 33.56ZM10.8 28.92C12.32 28.92 13.5333 28.2933 14.44 27.04C15.3733 25.7867 15.84 23.7467 15.84 20.92V15.2C15.84 12.3733 15.3733 10.3333 14.44 9.08C13.5333 7.82667 12.32 7.2 10.8 7.2C9.28 7.2 8.05333 7.84 7.12 9.12C6.18667 10.3733 5.72 12.4 5.72 15.2V20.92C5.72 23.72 6.18667 25.76 7.12 27.04C8.05333 28.2933 9.28 28.92 10.8 28.92ZM18.36 19.52V14.84H29.24V19.52H18.36ZM65.0897 28.6V0.959999H70.0497V28.6H65.0897ZM60.2897 13.88V9.52H68.3697V13.88H60.2897ZM44.4897 38.32V26.24H49.6097V33.68H71.4497V38.32H44.4897ZM38.9297 22.72V2.76H48.8497V7.08H43.8497V18.32H44.2097C45.5164 18.32 47.0364 18.1867 48.7697 17.92L49.1697 22.2C46.823 22.5467 44.303 22.72 41.6097 22.72H38.9297ZM50.3297 22.72V2.76H60.4497V7.08H55.2497V18.32H56.0897C57.343 18.32 58.9697 18.1867 60.9697 17.92L61.3297 22.2C58.983 22.5467 56.4497 22.72 53.7297 22.72H50.3297ZM110.301 38.32V0.959999H115.421V38.32H110.301ZM113.821 19.12V14.48H120.821V19.12H113.821ZM84.1413 30.04C87.2879 26.68 89.5679 23.2533 90.9813 19.76C92.4213 16.2667 93.1413 12.3867 93.1413 8.12V3.04H98.1413V8.12C98.1413 12.92 97.3013 17.4 95.6213 21.56C93.9413 25.6933 91.3413 29.6133 87.8213 33.32L84.1413 30.04ZM103.341 32.96L92.5013 19.12L96.3813 15.92L107.221 29.8L103.341 32.96ZM148.271 38.32V0.959999H153.351V38.32H148.271ZM151.751 19.12V14.48H158.751V19.12H151.751ZM122.191 30C124.244 27.8133 125.924 25.6533 127.231 23.52C128.564 21.3867 129.551 19.1733 130.191 16.88C130.858 14.56 131.191 12.0933 131.191 9.48V6.52H136.191V9.48C136.191 13.9067 135.324 18.08 133.591 22C131.884 25.92 129.298 29.6933 125.831 33.32L122.191 30ZM141.551 32.96L130.511 19.16L134.311 15.8L145.391 29.64L141.551 32.96ZM123.671 8.4V3.72H143.951V8.4H123.671ZM169.561 33.56C167.134 33.56 165.187 32.5333 163.721 30.48C162.254 28.4267 161.521 25.24 161.521 20.92V15.2C161.521 10.88 162.254 7.69333 163.721 5.64C165.187 3.58666 167.134 2.56 169.561 2.56C171.961 2.56 173.881 3.58666 175.321 5.64C176.787 7.69333 177.521 10.88 177.521 15.2V20.92C177.521 25.24 176.787 28.4267 175.321 30.48C173.881 32.5333 171.961 33.56 169.561 33.56ZM169.561 28.92C170.547 28.92 171.321 28.2933 171.881 27.04C172.441 25.7867 172.721 23.7467 172.721 20.92V15.2C172.721 12.3733 172.441 10.3333 171.881 9.08C171.321 7.82667 170.547 7.2 169.561 7.2C168.574 7.2 167.787 7.82667 167.201 9.08C166.641 10.3333 166.361 12.3733 166.361 15.2V20.92C166.361 23.7467 166.641 25.7867 167.201 27.04C167.787 28.2933 168.574 28.92 169.561 28.92ZM189.121 38.32V0.959999H194.081V38.32H189.121ZM181.001 37.44V1.56H185.841V37.44H181.001ZM175.201 19.52V14.84H183.201V19.52H175.201ZM227.05 38.32V0.959999H232.01V38.32H227.05ZM218.93 37.44V1.56H223.77V37.44H218.93ZM199.41 30.4C202.984 27.0667 205.624 23.5067 207.33 19.72C209.037 15.9333 209.89 12.16 209.89 8.4V6.8L211.41 8.4H200.57V3.72H214.89V7.4C214.89 12.6267 213.917 17.4267 211.97 21.8C210.024 26.1733 207.104 30.2667 203.21 34.08L199.41 30.4ZM211.41 19.92V15.24H221.13V19.92H211.41ZM274.062 28.6V0.959999H279.182V28.6H274.062ZM269.582 10.44V6.56H276.662V10.44H269.582ZM269.542 17.88V13.96H276.662V17.88H269.542ZM253.822 38.32V26.64H258.942V33.68H280.542V38.32H253.822ZM247.622 23.48L247.382 19H253.502C255.742 19 258.315 18.8933 261.222 18.68C264.155 18.4667 267.009 18.1867 269.782 17.84L270.262 22.24C267.649 22.64 264.809 22.9467 261.742 23.16C258.702 23.3733 255.769 23.48 252.942 23.48H247.622ZM251.102 20.28V5H256.022V20.28H251.102ZM260.142 20.2V5H265.022V20.2H260.142ZM247.862 7.24V2.76H268.822V7.24H247.862ZM311.992 38.32V0.959999H317.112V38.32H311.992ZM284.952 29.92C287.112 27.7333 288.872 25.5867 290.232 23.48C291.618 21.3467 292.658 19.1333 293.352 16.84C294.045 14.52 294.392 12.04 294.392 9.4V6.52H299.392V9.4C299.392 13.8533 298.485 18.04 296.672 21.96C294.885 25.88 292.178 29.6667 288.552 33.32L284.952 29.92ZM305.192 32.96L293.672 19.16L297.352 15.76L308.952 29.6L305.192 32.96ZM286.432 8.4V3.72H307.472V8.4H286.432ZM322.641 21.68V17.92H357.841V21.68H322.641ZM326.761 38.52V29.12H348.641V27.36H326.561V23.6H353.761V32.84H331.841V34.64H354.761V38.52H326.761ZM327.121 16.04V7.04H348.241V5.24H326.921V1.48H353.401V10.68H332.241V12.36H354.161V16.04H327.121ZM395.693 21.12V0.959999H400.813V21.12H395.693ZM399.213 12.88V8.24H406.213V12.88H399.213ZM376.213 38.32V23.16H400.813V38.32H376.213ZM381.333 33.76H395.693V27.68H381.333V33.76ZM371.173 20.08V2.56H376.333V15.44H379.173C381.013 15.44 383.039 15.3467 385.253 15.16C387.466 14.9467 389.799 14.6667 392.253 14.32L392.853 18.84C390.506 19.24 388.093 19.5467 385.613 19.76C383.159 19.9733 380.706 20.08 378.253 20.08H371.173ZM435.703 38.32V0.959999H440.823V38.32H435.703ZM409.783 30.08C412.929 28.0533 415.543 25.8133 417.622 23.36C419.729 20.9067 421.289 18.4133 422.303 15.88C423.343 13.32 423.863 10.8267 423.863 8.4V6.8L425.383 8.4H410.863V3.72H429.023V7.4C429.023 12.6533 427.649 17.5467 424.903 22.08C422.156 26.5867 418.169 30.5867 412.942 34.08L409.783 30.08ZM427.423 14.04V9.4H438.303V14.04H427.423ZM427.622 25.72V21.08H438.303V25.72H427.622ZM446.352 20.64V16.6H481.552V20.64H446.352ZM450.472 38.52V28.52H472.352V26.48H450.272V22.56H477.472V32.36H455.552V34.48H478.472V38.52H450.472ZM461.392 18.96V11.52H466.512V18.96H461.392ZM450.832 14.16V1.28H455.952V10.16H471.952V1.28H477.112V14.16H450.832ZM453.712 8.04V4.04H474.232V8.04H453.712ZM509.922 38.32V0.959999H514.922V38.32H509.922ZM513.282 19.12V14.48H520.202V19.12H513.282ZM495.042 32.56C497.095 28.4533 498.602 24.2933 499.562 20.08C500.522 15.84 501.002 11.9467 501.002 8.4V6.8L502.562 8.4H496.482V3.72H505.962V7.4C505.962 12.0933 505.402 16.76 504.282 21.4C503.189 26.0133 501.535 30.52 499.322 34.92L495.042 32.56ZM484.002 31.04C486.109 26.8267 487.629 22.84 488.562 19.08C489.522 15.2933 490.002 11.7333 490.002 8.4V6.8L491.562 8.4H485.282V3.72H494.962V7.4C494.962 11.9333 494.415 16.28 493.322 20.44C492.255 24.5733 490.575 28.8933 488.282 33.4L484.002 31.04ZM522.212 35.72V31.04H557.412V35.72H522.212ZM536.652 23.12C534.492 23.12 532.572 22.68 530.892 21.8C529.238 20.8933 527.945 19.6667 527.012 18.12C526.105 16.5733 525.652 14.8267 525.652 12.88C525.652 10.96 526.105 9.22667 527.012 7.68C527.945 6.13333 529.238 4.92 530.892 4.04C532.572 3.13333 534.492 2.68 536.652 2.68H543.012C545.172 2.68 547.092 3.13333 548.772 4.04C550.452 4.92 551.745 6.13333 552.652 7.68C553.585 9.22667 554.052 10.96 554.052 12.88C554.052 14.8267 553.585 16.5733 552.652 18.12C551.745 19.6667 550.452 20.8933 548.772 21.8C547.092 22.68 545.172 23.12 543.012 23.12H536.652ZM542.052 18.64C543.438 18.64 544.652 18.4 545.692 17.92C546.732 17.44 547.532 16.7733 548.092 15.92C548.652 15.0667 548.932 14.0667 548.932 12.92C548.932 11.8 548.652 10.8133 548.092 9.96C547.532 9.10667 546.732 8.45333 545.692 8C544.652 7.52 543.438 7.28 542.052 7.28H537.612C536.225 7.28 535.012 7.52 533.972 8C532.932 8.45333 532.132 9.10667 531.572 9.96C531.012 10.8133 530.732 11.8 530.732 12.92C530.732 14.0667 531.012 15.0667 531.572 15.92C532.132 16.7733 532.932 17.44 533.972 17.92C535.012 18.4 536.225 18.64 537.612 18.64H542.052ZM530.732 34.52V25.2H535.692V34.52H530.732ZM543.972 34.52V25.2H548.932V34.52H543.972ZM559.621 9.44C560.395 7.14667 561.701 5.32 563.541 3.96C565.381 2.57333 567.648 1.88 570.341 1.88C572.128 1.88 573.821 2.25333 575.421 3C577.048 3.74667 578.355 4.82667 579.341 6.24C580.328 7.62667 580.821 9.25333 580.821 11.12C580.821 12.6133 580.568 13.9333 580.061 15.08C579.581 16.2 578.861 17.1867 577.901 18.04C576.968 18.8933 575.795 19.68 574.381 20.4C573.208 21.0133 572.408 21.5733 571.981 22.08C571.581 22.56 571.368 23.2133 571.341 24.04L571.301 25.84H566.501L566.461 23.52C566.435 22.3733 566.555 21.4133 566.821 20.64C567.115 19.8667 567.608 19.1733 568.301 18.56C569.021 17.9467 570.035 17.32 571.341 16.68C572.861 15.88 573.955 15.0667 574.621 14.24C575.315 13.4133 575.661 12.3733 575.661 11.12C575.661 10.1867 575.421 9.37333 574.941 8.68C574.488 7.98667 573.848 7.46667 573.021 7.12C572.221 6.74667 571.328 6.56 570.341 6.56C568.768 6.56 567.528 6.93333 566.621 7.68C565.715 8.42666 564.968 9.54666 564.381 11.04L559.621 9.44ZM568.941 36.72C568.035 36.72 567.261 36.4 566.621 35.76C565.981 35.1467 565.661 34.3867 565.661 33.48C565.661 32.5733 565.981 31.8 566.621 31.16C567.261 30.52 568.035 30.2 568.941 30.2C569.848 30.2 570.608 30.52 571.221 31.16C571.861 31.8 572.181 32.5733 572.181 33.48C572.181 34.3867 571.861 35.1467 571.221 35.76C570.608 36.4 569.848 36.72 568.941 36.72Z" fill="black"/>
</svg>
