<svg width="181" height="12" viewBox="0 0 181 12" fill="none" xmlns="http://www.w3.org/2000/svg">
<path id="Vector" d="M177.159 4.9111C175.872 5.1201 174.585 5.14209 173.287 5.09809C172.869 5.10909 172.11 5.0541 171.791 5.0321C171.725 4.9991 171.67 4.96609 171.604 4.94409C169.041 3.74509 166.17 3.55809 163.387 3.29409C160.538 2.97509 157.678 2.59009 154.796 2.65609C151.529 2.66709 148.273 3.0521 145.006 2.9861C142.135 2.9311 139.297 2.51309 136.426 2.44709C127.571 2.10609 118.782 0.621094 109.927 0.621094C102.964 0.632094 96.067 1.63309 89.115 1.89709C81.129 2.56809 73.11 2.64509 65.113 3.20609C60.504 3.53609 55.884 3.6351 51.264 3.7781C46.105 4.2181 40.957 4.7571 35.776 5.0761C29.22 5.8461 16.658 4.64709 13.336 4.27309C10.839 3.88809 8.30903 3.6461 5.84503 3.1071C4.47003 2.8321 2.99603 2.18309 1.68703 3.00809C-0.589968 4.26209 -0.160986 8.00209 2.42401 8.62909C10.52 10.4111 18.858 11.0601 27.119 11.4891C35.16 11.5221 43.157 10.6311 51.154 9.92709C65.784 9.44309 80.403 8.55209 95.022 7.69409C101.193 7.15509 107.364 6.56109 113.557 6.77009C121.774 7.35309 129.947 8.3101 138.175 8.6511C143.697 9.2891 149.197 9.03609 154.73 8.77209C159.185 8.77209 165.092 9.53109 167.072 9.89409C167.479 9.98209 168.414 10.2681 168.678 10.3231C168.689 10.3231 168.7 10.3341 168.711 10.3341C170.515 11.3901 172.704 11.1701 174.717 11.2251C176.741 11.1701 179.48 11.1481 180.096 8.77209C180.624 6.90209 179.15 4.8671 177.159 4.9111Z" fill="black"/>
</svg>
